# xmcd
#
# Track frame offsets: 
#        150
#        15425
#        32895
#        51372
#        68767
#        85497
#        110655
#        126587
#        141540
#        160185
#        174817
#        190270
#        209965
#        225815
#        244140
#        259150
#
# Disc length: 3714 seconds
#
# Revision: 1
# Processed by: cddbd v1.5.2PL0 Copyright (c) Steve Scherf et al.
# Submitted via: ExactAudioCopyFreeDBPlugin 1.0
#
DISCID=e90e8010
DTITLE=รวมศิลปิน - รวมเพลงเพื่อชีวิต ใจเกินร้อย
DYEAR=1900
DGENRE=Country
TTITLE0=พงษ์สิทธิ์ คำภีร์ - ถึงเพื่อน
TTITLE1=จ่าหลอย เฮนรี่ฯ - น้ำตามดแดง
TTITLE2=ร็อคแสลง - ไอ้หนุ่มโลโซ
TTITLE3=ฤทธิพร อินสว่าง - เธอผู้ห่างไกล
TTITLE4=สันติภาพ - แรกรัก
TTITLE5=พงษ์เทพ กระโดนชำนาญ - นกเขาไฟ
TTITLE6=เขียว คาราบาว - ไม่เคย
TTITLE7=โฮป - คำสัญญาที่ว่างเปล่า
TTITLE8=เทียรี่ เมฆวัฒนา - ร้องไห้กับเดือน
TTITLE9=วิสา คัญทัพ - กุหลาบปากซัน
TTITLE10=คันไถ - อีเรียม
TTITLE11=สีเผือก - วันทอง
TTITLE12=อมตะ - ตาผุยชุมแพ
TTITLE13=เอราวัณ - ม.21
TTITLE14=ฌา มา - สาวเทคนิค
TTITLE15=สมรักษ์ คำสิงห์ - ออนซอนเด
EXTD=
EXTT0=
EXTT1=
EXTT2=
EXTT3=
EXTT4=
EXTT5=
EXTT6=
EXTT7=
EXTT8=
EXTT9=
EXTT10=
EXTT11=
EXTT12=
EXTT13=
EXTT14=
EXTT15=
PLAYORDER=
